<svg width="40" height="40" viewBox="0 0 40 40" fill="none" xmlns="http://www.w3.org/2000/svg">
<path d="M20.0961 33.3333C16.3923 33.3333 13.2442 32.037 10.6516 29.4444C8.059 26.8518 6.7627 23.7037 6.7627 20C6.7627 16.6239 7.86313 13.6965 10.064 11.2179C12.2648 8.73929 14.9892 7.27563 18.2371 6.8269C18.3268 6.8269 18.415 6.83011 18.5015 6.83653C18.5881 6.84292 18.673 6.85253 18.7563 6.86536C18.1943 7.64956 17.7494 8.52189 17.4214 9.48236C17.0934 10.4428 16.9294 11.4487 16.9294 12.5C16.9294 15.463 17.9664 17.9815 20.0405 20.0555C22.1146 22.1296 24.6331 23.1667 27.5961 23.1667C28.6538 23.1667 29.6612 23.0027 30.6185 22.6747C31.5758 22.3467 32.4358 21.9017 33.1986 21.3397C33.2114 21.423 33.2211 21.508 33.2275 21.5945C33.2339 21.6811 33.2371 21.7692 33.2371 21.8589C32.8098 25.1068 31.3568 27.8312 28.8781 30.032C26.3995 32.2329 23.4721 33.3333 20.0961 33.3333ZM20.0961 31.6667C22.5405 31.6667 24.735 30.993 26.6794 29.6458C28.6238 28.2986 30.0405 26.5417 30.9294 24.375C30.3738 24.5139 29.8183 24.625 29.2627 24.7083C28.7072 24.7917 28.1516 24.8333 27.5961 24.8333C24.1794 24.8333 21.2697 23.6319 18.8669 21.2292C16.4641 18.8264 15.2627 15.9167 15.2627 12.5C15.2627 11.9444 15.3044 11.3889 15.3877 10.8333C15.4711 10.2778 15.5822 9.72221 15.7211 9.16665C13.5544 10.0555 11.7975 11.4722 10.4502 13.4167C9.10301 15.3611 8.4294 17.5555 8.4294 20C8.4294 23.2222 9.56829 25.9722 11.8461 28.25C14.1238 30.5278 16.8738 31.6667 20.0961 31.6667Z" fill="black"/>
</svg>
